<svg width="32" height="34" viewBox="0 0 32 34" fill="none" xmlns="http://www.w3.org/2000/svg">
<path d="M27.6917 4.37096C24.9072 1.5464 21.2049 0 17.2849 0C16.6471 0 16.1182 0.536507 16.1182 1.18347C16.1182 1.83044 16.6471 2.36694 17.2849 2.36694C20.5983 2.36694 23.7094 3.67665 26.0428 6.04359C28.3762 8.41054 29.6673 11.5665 29.6673 14.9275C29.6673 15.5745 30.1962 16.111 30.834 16.111C31.4718 16.111 32.0007 15.5745 32.0007 14.9275C32.0007 10.9511 30.4762 7.19551 27.6917 4.37096Z" fill="black"/>
<path d="M22.883 14.9433C22.883 15.5902 23.4119 16.1267 24.0496 16.1267C24.6874 16.1267 25.2163 15.5902 25.2163 14.9433C25.2163 10.4934 21.654 6.87988 17.2673 6.87988C16.6295 6.87988 16.1006 7.41639 16.1006 8.06335C16.1006 8.71032 16.6295 9.24683 17.2673 9.24683C20.3785 9.24683 22.883 11.8031 22.883 14.9433Z" fill="black"/>
<path d="M20.3166 20.9709C18.5432 20.8762 17.6254 22.2175 17.2054 22.8644C16.8476 23.4009 16.9721 24.1426 17.5165 24.5055C18.061 24.8684 18.7765 24.7422 19.1343 24.1899C19.6477 23.4325 19.881 23.3063 20.1921 23.322C21.2033 23.4483 25.1856 26.3991 25.5745 27.3301C25.6678 27.5983 25.6678 27.8666 25.5589 28.1979C25.1389 29.4603 24.4544 30.344 23.5522 30.7542C22.7122 31.1487 21.6699 31.1172 20.5499 30.6438C16.3809 28.9238 12.7564 26.5253 9.73858 23.5114C6.7674 20.4659 4.40291 16.7735 2.70732 12.5603C2.2562 11.4242 2.22509 10.3828 2.59843 9.51487C3.00288 8.61543 3.87401 7.90535 5.11848 7.49508C5.44515 7.38462 5.7096 7.38462 5.97405 7.4793C6.89185 7.88957 9.8008 11.9134 9.92525 12.939C9.9408 13.2704 9.81636 13.5071 9.06967 14.0278C8.54077 14.3908 8.40077 15.1324 8.75856 15.6689C9.11634 16.2054 9.84747 16.3474 10.3764 15.9845C11.0142 15.5427 12.3364 14.6275 12.2431 12.8128C12.1342 10.9193 8.50966 5.91712 6.78296 5.27015C6.00517 4.98612 5.19626 4.97034 4.3718 5.25437C2.50509 5.88556 1.16729 7.02169 0.482829 8.53653C-0.186074 9.98826 -0.154962 11.6767 0.545052 13.444C2.36509 17.957 4.9007 21.9019 8.08965 25.184C8.08965 25.1998 8.10521 25.1998 8.12076 25.1998C11.3564 28.4346 15.2454 31.0067 19.6788 32.8372C20.5655 33.2001 21.4522 33.3894 22.2766 33.3894C23.07 33.3894 23.8166 33.2316 24.5167 32.9003C26.01 32.206 27.13 30.8489 27.7523 28.9554C28.0323 28.119 28.0323 27.2985 27.7367 26.5095C27.1145 24.758 22.1833 21.0656 20.3166 20.9709Z" fill="black"/>
</svg>
