<svg width="32" height="34" viewBox="0 0 32 34" fill="none" xmlns="http://www.w3.org/2000/svg">
<path d="M27.6917 4.37096C24.9072 1.5464 21.2049 0 17.2849 0C16.6471 0 16.1182 0.536507 16.1182 1.18347C16.1182 1.83044 16.6471 2.36694 17.2849 2.36694C20.5983 2.36694 23.7094 3.67665 26.0428 6.04359C28.3762 8.41054 29.6673 11.5665 29.6673 14.9275C29.6673 15.5745 30.1962 16.111 30.834 16.111C31.4718 16.111 32.0007 15.5745 32.0007 14.9275C32.0007 10.9511 30.4762 7.19551 27.6917 4.37096Z" fill="#0859F5"/>
<path d="M22.883 14.9433C22.883 15.5902 23.4119 16.1267 24.0496 16.1267C24.6874 16.1267 25.2163 15.5902 25.2163 14.9433C25.2163 10.4934 21.654 6.87988 17.2673 6.87988C16.6295 6.87988 16.1006 7.41639 16.1006 8.06335C16.1006 8.71032 16.6295 9.24683 17.2673 9.24683C20.3785 9.24683 22.883 11.8031 22.883 14.9433Z" fill="#0859F5"/>
<path d="M20.3166 20.9706C18.5432 20.876 17.6254 22.2172 17.2054 22.8642C16.8476 23.4007 16.9721 24.1423 17.5165 24.5053C18.061 24.8682 18.7765 24.742 19.1343 24.1897C19.6477 23.4323 19.881 23.306 20.1921 23.3218C21.2033 23.448 25.1856 26.3988 25.5745 27.3298C25.6678 27.5981 25.6678 27.8663 25.5589 28.1977C25.1389 29.4601 24.4544 30.3437 23.5522 30.754C22.7122 31.1485 21.6699 31.1169 20.5499 30.6435C16.3809 28.9236 12.7564 26.5251 9.73858 23.5112C6.7674 20.4657 4.40291 16.7733 2.70732 12.5601C2.2562 11.424 2.22509 10.3825 2.59843 9.51463C3.00288 8.61519 3.87401 7.9051 5.11848 7.49483C5.44515 7.38438 5.7096 7.38438 5.97405 7.47905C6.89185 7.88933 9.8008 11.9131 9.92525 12.9388C9.9408 13.2702 9.81636 13.5069 9.06967 14.0276C8.54077 14.3905 8.40077 15.1322 8.75856 15.6687C9.11634 16.2052 9.84747 16.3472 10.3764 15.9843C11.0142 15.5424 12.3364 14.6272 12.2431 12.8126C12.1342 10.919 8.50966 5.91687 6.78296 5.26991C6.00517 4.98587 5.19626 4.97009 4.3718 5.25413C2.50509 5.88531 1.16729 7.02145 0.482829 8.53629C-0.186074 9.98802 -0.154962 11.6764 0.545052 13.4438C2.36509 17.9567 4.9007 21.9016 8.08965 25.1838C8.08965 25.1996 8.10521 25.1996 8.12076 25.1996C11.3564 28.4344 15.2454 31.0065 19.6788 32.8369C20.5655 33.1998 21.4522 33.3892 22.2766 33.3892C23.07 33.3892 23.8166 33.2314 24.5167 32.9C26.01 32.2057 27.13 30.8487 27.7523 28.9551C28.0323 28.1188 28.0323 27.2983 27.7367 26.5093C27.1145 24.7577 22.1833 21.0653 20.3166 20.9706Z" fill="#0859F5"/>
</svg>
