<svg width="28" height="36" viewBox="0 0 28 36" fill="none" xmlns="http://www.w3.org/2000/svg">
<path d="M13.8142 0C6.18915 0 0 6.15006 0 13.7269C0 19.139 2.27761 24.6003 6.58526 29.5367C9.80361 33.2267 12.989 35.3096 13.121 35.408C13.3191 35.5392 13.5666 35.6048 13.7977 35.6048C14.0287 35.6048 14.2763 35.5392 14.4744 35.408C14.6064 35.326 17.7917 33.2267 21.0101 29.5367C25.3178 24.6003 27.5954 19.1226 27.5954 13.7269C27.6119 6.15006 21.4227 0 13.8142 0ZM13.8142 32.8659C11.2725 30.9799 2.47566 23.7474 2.47566 13.7269C2.47566 7.51128 7.55901 2.46003 13.8142 2.46003C20.0694 2.46003 25.1527 7.51128 25.1527 13.7269C25.1362 23.7474 16.3559 30.9799 13.8142 32.8659Z" fill="#0859F5"/>
<path d="M13.8144 8.26562C10.7941 8.26562 8.33496 10.7092 8.33496 13.7105C8.33496 16.7117 10.7941 19.1553 13.8144 19.1553C16.8347 19.1553 19.2939 16.7117 19.2939 13.7105C19.2939 10.7092 16.8347 8.26562 13.8144 8.26562ZM13.8144 16.7117C12.164 16.7117 10.8106 15.3669 10.8106 13.7269C10.8106 12.0869 12.164 10.7421 13.8144 10.7421C15.4649 10.7421 16.8182 12.0869 16.8182 13.7269C16.8182 15.3669 15.4649 16.7117 13.8144 16.7117Z" fill="#0859F5"/>
</svg>
