<svg width="35" height="35" viewBox="0 0 35 35" fill="none" xmlns="http://www.w3.org/2000/svg">
<path d="M17.103 0C7.66857 0 0 7.66857 0 17.103C0 26.5375 7.66857 34.2061 17.103 34.2061C26.5375 34.2061 34.2061 26.5375 34.2061 17.103C34.2224 7.66857 26.5375 0 17.103 0ZM17.103 31.7698C9.02569 31.7698 2.45263 25.1967 2.45263 17.1194C2.45263 9.02569 9.02569 2.45263 17.103 2.45263C25.1804 2.45263 31.7534 9.02569 31.7534 17.103C31.7698 25.1967 25.1967 31.7698 17.103 31.7698Z" fill="#0859F5"/>
<path d="M25.8996 16.8249H17.855V8.02807C17.855 7.35769 17.299 6.80176 16.6287 6.80176C15.9583 6.80176 15.4023 7.35769 15.4023 8.02807V18.0512C15.4023 18.7216 15.9583 19.2775 16.6287 19.2775H25.8996C26.57 19.2775 27.1259 18.7216 27.1259 18.0512C27.1259 17.3808 26.5864 16.8249 25.8996 16.8249Z" fill="#0859F5"/>
</svg>
