<svg width="33" height="27" viewBox="0 0 33 27" fill="none" xmlns="http://www.w3.org/2000/svg">
<path d="M30.1385 0H3.64721C2.07101 0 0.785156 1.29305 0.785156 2.87808V23.7615C0.785156 25.3466 2.07101 26.6396 3.64721 26.6396H30.1385C31.7147 26.6396 33.0005 25.3466 33.0005 23.7615V2.87808C33.0005 1.29305 31.7147 0 30.1385 0ZM3.64721 2.08556H30.1385C30.5671 2.08556 30.9266 2.44706 30.9266 2.87808V6.47915H2.85911V2.87808C2.85911 2.44706 3.21859 2.08556 3.64721 2.08556ZM30.1385 24.5541H3.64721C3.21859 24.5541 2.85911 24.1926 2.85911 23.7615V8.56472H30.9266V23.7615C30.9266 24.2065 30.5671 24.5541 30.1385 24.5541Z" fill="black"/>
<path d="M6.63268 15.7152H10.7806C11.3475 15.7152 11.8176 15.2425 11.8176 14.6724C11.8176 14.1024 11.3475 13.6296 10.7806 13.6296H6.63268C6.0658 13.6296 5.5957 14.1024 5.5957 14.6724C5.5957 15.2425 6.0658 15.7152 6.63268 15.7152Z" fill="black"/>
<path d="M17.597 20.0354H6.63268C6.0658 20.0354 5.5957 20.5081 5.5957 21.0782C5.5957 21.6482 6.0658 22.121 6.63268 22.121H17.597C18.1638 22.121 18.6339 21.6482 18.6339 21.0782C18.6339 20.5081 18.1777 20.0354 17.597 20.0354Z" fill="black"/>
</svg>
