<svg width="33" height="27" viewBox="0 0 33 27" fill="none" xmlns="http://www.w3.org/2000/svg">
<path d="M29.3533 0H2.86205C1.28585 0 0 1.29305 0 2.87808V23.7615C0 25.3466 1.28585 26.6396 2.86205 26.6396H29.3533C30.9295 26.6396 32.2153 25.3466 32.2153 23.7615V2.87808C32.2153 1.29305 30.9295 0 29.3533 0ZM2.86205 2.08556H29.3533C29.7819 2.08556 30.1414 2.44706 30.1414 2.87808V6.47915H2.07395V2.87808C2.07395 2.44706 2.43343 2.08556 2.86205 2.08556ZM29.3533 24.5541H2.86205C2.43343 24.5541 2.07395 24.1926 2.07395 23.7615V8.56472H30.1414V23.7615C30.1414 24.2065 29.7819 24.5541 29.3533 24.5541Z" fill="#0859F5"/>
<path d="M5.84752 15.7154H9.99542C10.5623 15.7154 11.0324 15.2427 11.0324 14.6727C11.0324 14.1026 10.5623 13.6299 9.99542 13.6299H5.84752C5.28064 13.6299 4.81055 14.1026 4.81055 14.6727C4.81055 15.2427 5.28064 15.7154 5.84752 15.7154Z" fill="#0859F5"/>
<path d="M16.8118 20.0352H5.84752C5.28064 20.0352 4.81055 20.5079 4.81055 21.0779C4.81055 21.648 5.28064 22.1207 5.84752 22.1207H16.8118C17.3787 22.1207 17.8488 21.648 17.8488 21.0779C17.8488 20.5079 17.3925 20.0352 16.8118 20.0352Z" fill="#0859F5"/>
</svg>
