<svg width="16" height="18" viewBox="0 0 16 18" fill="none" xmlns="http://www.w3.org/2000/svg">
<path d="M8.07603 0C4.06731 0 0.813477 3.10917 0.813477 6.93966C0.813477 9.67572 2.01089 12.4367 4.27555 14.9323C5.96755 16.7978 7.64219 17.8508 7.7116 17.9005C7.81572 17.9668 7.94588 18 8.06735 18C8.18883 18 8.31898 17.9668 8.42311 17.9005C8.49252 17.859 10.1672 16.7978 11.8592 14.9323C14.1238 12.4367 15.3212 9.66743 15.3212 6.93966C15.3299 3.10917 12.0761 0 8.07603 0ZM8.07603 16.6154C6.73979 15.6619 2.11501 12.0055 2.11501 6.93966C2.11501 3.79733 4.78749 1.24367 8.07603 1.24367C11.3646 1.24367 14.0371 3.79733 14.0371 6.93966C14.0284 12.0055 9.41227 15.6619 8.07603 16.6154Z" fill="#585858"/>
<path d="M8.0673 4C6.35371 4 4.9585 5.34639 4.9585 7C4.9585 8.65361 6.35371 10 8.0673 10C9.78089 10 11.1761 8.65361 11.1761 7C11.1761 5.34639 9.78089 4 8.0673 4ZM8.0673 8.65361C7.13092 8.65361 6.36308 7.91265 6.36308 7.00904C6.36308 6.10542 7.13092 5.36446 8.0673 5.36446C9.00369 5.36446 9.77153 6.10542 9.77153 7.00904C9.77153 7.91265 9.00369 8.65361 8.0673 8.65361Z" fill="#585858"/>
</svg>