<svg width="22" height="37" viewBox="0 0 22 37" fill="none" xmlns="http://www.w3.org/2000/svg">
<path d="M14.2867 26.7031L20.3269 16.9804C20.3464 16.9492 20.3629 16.9163 20.3761 16.882C21.4255 15.17 21.9851 13.2029 21.9942 11.1949C22.0033 9.18693 21.4614 7.21491 20.4275 5.49349C19.3936 3.77207 17.9074 2.36721 16.1306 1.4318C14.3537 0.49639 12.3544 0.0662669 10.35 0.188244C7.76379 0.363908 5.32115 1.44147 3.44779 3.23315C1.57443 5.02483 0.389123 7.41704 0.0984164 9.9929C-0.161264 12.4004 0.388457 14.8258 1.66076 16.8861C1.67327 16.9174 1.68836 16.9475 1.70587 16.9763L7.5124 26.7031C2.98117 27.351 0 29.2496 0 31.5664C0 34.4082 4.83057 36.6389 11.0021 36.6389C17.1735 36.6389 22 34.4082 22 31.5623C22 29.2045 18.9409 27.3018 14.2867 26.7031ZM2.75564 16.3284C1.58633 14.4802 1.07754 12.2904 1.31221 10.1159C1.57399 7.82692 2.63054 5.7023 4.2978 4.11223C5.96505 2.52215 8.13733 1.56741 10.4362 1.41434C12.2247 1.30576 14.0086 1.69251 15.5915 2.53204C17.1745 3.37158 18.4954 4.63139 19.4088 6.17295C20.3222 7.7145 20.7928 9.47808 20.7688 11.2698C20.7449 13.0614 20.2273 14.8118 19.2731 16.3284C19.2534 16.3609 19.2369 16.3953 19.2239 16.4309L10.8462 29.8934L9.06244 26.904L2.81305 16.4514C2.7986 16.4084 2.77935 16.3671 2.75564 16.3284ZM10.998 35.4005C5.25704 35.4005 1.2261 33.3748 1.2261 31.5582C1.2261 29.8893 4.19907 28.3269 8.19721 27.8676L10.309 31.4024C10.363 31.4927 10.4392 31.5676 10.5304 31.62C10.6216 31.6724 10.7247 31.7005 10.8298 31.7018C10.9342 31.7014 11.0368 31.6745 11.1279 31.6236C11.219 31.5726 11.2956 31.4993 11.3506 31.4106L13.5568 27.8635C17.6861 28.3023 20.7575 29.8688 20.7575 31.5746C20.7698 33.3789 16.7594 35.4046 10.998 35.4046V35.4005Z" fill="#0859F5"/>
<path d="M10.9979 14.9793C11.7879 14.9793 12.5601 14.745 13.2169 14.3062C13.8737 13.8673 14.3857 13.2435 14.6879 12.5137C14.9902 11.7839 15.0693 10.9808 14.9152 10.2061C14.7611 9.43128 14.3807 8.71961 13.8222 8.16104C13.2636 7.60246 12.5519 7.22207 11.7771 7.06796C11.0024 6.91385 10.1993 6.99294 9.46949 7.29524C8.73967 7.59754 8.11589 8.10946 7.67702 8.76628C7.23815 9.4231 7.00391 10.1953 7.00391 10.9852C7.00499 12.0442 7.42614 13.0595 8.17493 13.8083C8.92372 14.557 9.93899 14.9782 10.9979 14.9793ZM10.9979 8.22141C11.5446 8.22141 12.0789 8.3835 12.5334 8.6872C12.988 8.99089 13.3422 9.42255 13.5514 9.92757C13.7606 10.4326 13.8153 10.9883 13.7087 11.5244C13.602 12.0606 13.3388 12.553 12.9523 12.9396C12.5657 13.3261 12.0733 13.5893 11.5371 13.696C11.001 13.8026 10.4453 13.7479 9.94027 13.5387C9.43524 13.3295 9.00359 12.9753 8.69989 12.5208C8.3962 12.0662 8.2341 11.5319 8.2341 10.9852C8.23519 10.2526 8.52672 9.5502 9.04481 9.03212C9.56289 8.51403 10.2653 8.22249 10.9979 8.22141Z" fill="#0859F5"/>
</svg>
