<svg width="30" height="32" viewBox="0 0 30 32" fill="none" xmlns="http://www.w3.org/2000/svg">
<path d="M19.4012 22.0815C19.3258 21.9595 19.2052 21.8724 19.0657 21.8393C18.9262 21.8061 18.7793 21.8295 18.6571 21.9045L14.9151 24.2161C14.2992 24.5767 13.5698 24.691 12.8731 24.5363C12.1764 24.3816 11.564 23.9691 11.1586 23.3818L6.06935 15.1356C5.70972 14.5502 5.59711 13.8459 5.75626 13.1775C5.9154 12.5091 6.33329 11.9312 6.91817 11.5706L10.8011 9.17224C10.923 9.09686 11.0101 8.97623 11.0433 8.83677C11.0764 8.6973 11.053 8.55038 10.978 8.42817L7.75254 3.19441C7.67716 3.07247 7.55653 2.98538 7.41706 2.95221C7.2776 2.91903 7.13068 2.94248 7.00847 3.01742L3.12559 5.42661C-1.17628 8.08142 -1.02819 15.0634 3.51207 22.4029C5.59257 25.7729 8.20765 28.453 10.8769 29.9484C12.2508 30.7667 13.8114 31.2194 15.4099 31.2631C16.5813 31.2729 17.7317 30.9524 18.7294 30.3385L22.4497 28.0448C22.5716 27.9695 22.6587 27.8488 22.6919 27.7094C22.7251 27.5699 22.7016 27.423 22.6267 27.3008L19.4012 22.0815ZM18.1623 29.4138C15.7964 30.8586 13.185 29.9953 11.4079 29.002C8.87948 27.597 6.41972 25.0505 4.43674 21.8358C0.243226 15.0381 -0.0601802 8.67017 3.71434 6.35128L7.13489 4.23827L9.78608 8.53292L6.36192 10.6459C5.53413 11.1591 4.9435 11.9795 4.7194 12.9273C4.49531 13.8751 4.65603 14.8731 5.16636 15.7027L10.234 23.9489C10.7894 24.7822 11.6439 25.3703 12.6207 25.5915C13.5975 25.8126 14.6219 25.65 15.4822 25.1372L18.7619 23.1109L21.4167 27.3947L18.1623 29.4138Z" fill="#0859F5"/>
<path d="M14.8316 9.35641C15.7558 9.4095 16.6553 9.67496 17.4602 10.1322C18.2652 10.5894 18.9538 11.2261 19.4727 11.9927C19.9916 12.7593 20.3267 13.6352 20.4521 14.5524C20.5774 15.4696 20.4896 16.4034 20.1954 17.2811C20.1729 17.3487 20.1639 17.4201 20.1689 17.4911C20.174 17.5622 20.193 17.6316 20.2248 17.6953C20.2567 17.759 20.3008 17.8159 20.3546 17.8625C20.4085 17.9092 20.471 17.9449 20.5385 17.9674C20.6061 17.9899 20.6775 17.9989 20.7486 17.9939C20.8196 17.9888 20.889 17.9698 20.9527 17.9379C21.0165 17.9061 21.0733 17.862 21.12 17.8082C21.1667 17.7543 21.2023 17.6918 21.2248 17.6242C21.5728 16.5886 21.6771 15.4866 21.5296 14.404C21.3822 13.3215 20.9869 12.2876 20.3746 11.3827C19.7623 10.4779 18.9494 9.72652 17.9993 9.18713C17.0492 8.64773 15.9874 8.33485 14.8966 8.27282C14.8252 8.26743 14.7535 8.27643 14.6857 8.29929C14.6178 8.32216 14.5552 8.35841 14.5017 8.40591C14.4481 8.45341 14.4046 8.51119 14.3738 8.57581C14.343 8.64043 14.3255 8.71059 14.3223 8.78211C14.3179 8.85329 14.3276 8.92463 14.3509 8.99206C14.3741 9.05948 14.4104 9.12165 14.4577 9.17501C14.505 9.22836 14.5624 9.27185 14.6266 9.30298C14.6907 9.33411 14.7604 9.35227 14.8316 9.35641Z" fill="#0859F5"/>
<path d="M15.7883 3.877C15.7172 3.86894 15.6451 3.87497 15.5763 3.89475C15.5075 3.91453 15.4432 3.94766 15.3872 3.99227C15.3312 4.03688 15.2845 4.09209 15.2498 4.15473C15.2152 4.21738 15.1932 4.28625 15.1851 4.3574C15.177 4.42855 15.1831 4.50059 15.2029 4.56941C15.2226 4.63823 15.2558 4.70248 15.3004 4.75849C15.345 4.8145 15.4002 4.86118 15.4628 4.89586C15.5255 4.93054 15.5944 4.95253 15.6655 4.9606C17.1786 5.13197 18.6362 5.63118 19.9366 6.42347C21.2371 7.21576 22.3491 8.28207 23.1953 9.5481C24.0415 10.8141 24.6015 12.2494 24.8363 13.754C25.071 15.2586 24.9749 16.7963 24.5546 18.2599C24.5313 18.3292 24.5224 18.4025 24.5282 18.4754C24.534 18.5483 24.5545 18.6193 24.5885 18.684C24.6225 18.7487 24.6692 18.8059 24.7259 18.8521C24.7825 18.8983 24.848 18.9326 24.9182 18.9529C24.9885 18.9731 25.0621 18.9789 25.1347 18.97C25.2072 18.961 25.2772 18.9374 25.3404 18.9007C25.4037 18.864 25.4588 18.8148 25.5025 18.7562C25.5462 18.6976 25.5776 18.6308 25.5948 18.5597C26.0599 16.9443 26.167 15.247 25.9087 13.5859C25.6504 11.9249 25.033 10.3402 24.0993 8.94234C23.1657 7.54446 21.9384 6.36706 20.503 5.49222C19.0676 4.61738 17.4586 4.06616 15.7883 3.877Z" fill="#0859F5"/>
<path d="M27.4844 6.91115C26.2751 5.04923 24.6798 3.46898 22.8065 2.27745C20.9332 1.08592 18.8257 0.310945 16.6267 0.00503856C16.483 -0.0145996 16.3374 0.0236487 16.2219 0.111369C16.1065 0.19909 16.0305 0.329097 16.0109 0.47279C15.9913 0.616484 16.0295 0.762093 16.1172 0.877586C16.2049 0.993079 16.335 1.069 16.4787 1.08863C18.5071 1.37071 20.4522 2.08142 22.1846 3.1735C23.917 4.26557 25.3971 5.71399 26.5264 7.42242C27.6557 9.13085 28.4082 11.0601 28.7341 13.082C29.0599 15.1038 28.9516 17.1718 28.4163 19.1485C28.3978 19.2173 28.393 19.2891 28.4022 19.3597C28.4114 19.4303 28.4345 19.4984 28.47 19.5601C28.5056 19.6219 28.553 19.676 28.6094 19.7194C28.6659 19.7628 28.7303 19.7947 28.7991 19.8131C28.8679 19.8316 28.9397 19.8364 29.0103 19.8272C29.0809 19.818 29.149 19.7949 29.2107 19.7594C29.2724 19.7238 29.3265 19.6764 29.37 19.62C29.4134 19.5635 29.4452 19.4991 29.4637 19.4303C30.0325 17.3217 30.1503 15.1168 29.8092 12.9596C29.4681 10.8024 28.6759 8.74143 27.4844 6.91115Z" fill="#0859F5"/>
</svg>
