<svg width="23" height="21" viewBox="0 0 23 21" fill="none" xmlns="http://www.w3.org/2000/svg">
<path d="M10.5516 1.23574C10.8561 0.325346 12.1439 0.325347 12.4484 1.23574L14.3026 6.77934C14.439 7.18719 14.8209 7.46214 15.2509 7.46214H21.1882C22.1639 7.46214 22.562 8.71651 21.7648 9.27915L17.0118 12.6337C16.6511 12.8883 16.5 13.3493 16.6401 13.7679L18.4673 19.2308C18.7737 20.147 17.7316 20.9221 16.9423 20.365L12.0766 16.9309C11.7309 16.6869 11.2691 16.6869 10.9234 16.9309L6.05773 20.365C5.2684 20.9221 4.22628 20.147 4.53274 19.2307L6.35992 13.7679C6.49996 13.3493 6.34888 12.8883 5.98819 12.6337L1.23518 9.27914C0.438008 8.71651 0.836087 7.46214 1.81182 7.46214H7.74908C8.17913 7.46214 8.56103 7.18719 8.69744 6.77934L10.5516 1.23574Z" fill="currentColor"/>
</svg>
