<svg width="34" height="34" viewBox="0 0 34 34" fill="none" xmlns="http://www.w3.org/2000/svg">
<path d="M16.0516 2.83535C16.3561 1.92496 17.6439 1.92496 17.9484 2.83535L20.5884 10.7283C20.7248 11.1361 21.1067 11.4111 21.5367 11.4111H30.0169C30.9926 11.4111 31.3907 12.6655 30.5935 13.2281L23.7833 18.0347C23.4226 18.2892 23.2715 18.7502 23.4115 19.1689L26.0245 26.981C26.331 27.8972 25.2889 28.6723 24.4995 28.1152L17.5766 23.2292C17.2309 22.9852 16.7691 22.9852 16.4234 23.2292L9.50048 28.1152C8.71115 28.6723 7.66903 27.8972 7.97549 26.981L10.5885 19.1689C10.7285 18.7502 10.5774 18.2892 10.2167 18.0347L3.40649 13.2281C2.60931 12.6655 3.00739 11.4111 3.98312 11.4111H12.4633C12.8933 11.4111 13.2752 11.1361 13.4116 10.7283L16.0516 2.83535Z" fill="#F8D108"/>
</svg>
