<svg width="31" height="31" viewBox="0 0 31 31" fill="none" xmlns="http://www.w3.org/2000/svg">
<path d="M15.414 0C12.3654 0 9.38524 0.904013 6.85043 2.59772C4.31562 4.29143 2.33997 6.69876 1.17332 9.51529C0.00667863 12.3318 -0.298569 15.4311 0.296182 18.4211C0.890933 21.4111 2.35897 24.1576 4.51465 26.3133C6.67033 28.469 9.41684 29.937 12.4069 30.5317C15.3969 31.1265 18.4961 30.8212 21.3126 29.6546C24.1292 28.488 26.5365 26.5123 28.2302 23.9775C29.9239 21.4427 30.8279 18.4626 30.8279 15.414C30.8233 11.3273 29.1979 7.40939 26.3082 4.51971C23.4185 1.63002 19.5006 0.004584 15.414 0ZM15.414 29.7888C12.5709 29.7888 9.79167 28.9457 7.42775 27.3662C5.06382 25.7867 3.22136 23.5416 2.13337 20.915C1.04537 18.2883 0.760703 15.398 1.31536 12.6096C1.87001 9.82113 3.23908 7.25978 5.24944 5.24943C7.25979 3.23908 9.82114 1.87001 12.6096 1.31535C15.398 0.760696 18.2883 1.04537 20.915 2.13336C23.5416 3.22136 25.7867 5.06381 27.3662 7.42774C28.9457 9.79167 29.7888 12.5709 29.7888 15.414C29.7842 19.225 28.2682 22.8786 25.5734 25.5734C22.8786 28.2682 19.225 29.7842 15.414 29.7888Z" fill="#0859F5"/>
<path d="M15.4141 2.07831C15.2763 2.07831 15.1441 2.13305 15.0467 2.23049C14.9493 2.32793 14.8945 2.46008 14.8945 2.59788V4.67617C14.8945 4.81397 14.9493 4.94612 15.0467 5.04356C15.1441 5.141 15.2763 5.19574 15.4141 5.19574C15.5519 5.19574 15.6841 5.141 15.7815 5.04356C15.8789 4.94612 15.9337 4.81397 15.9337 4.67617V2.59788C15.9337 2.46008 15.8789 2.32793 15.7815 2.23049C15.6841 2.13305 15.5519 2.07831 15.4141 2.07831Z" fill="#0859F5"/>
<path d="M15.4141 25.6322C15.2763 25.6322 15.1441 25.6869 15.0467 25.7844C14.9493 25.8818 14.8945 26.014 14.8945 26.1518V28.2301C14.8945 28.3679 14.9493 28.5 15.0467 28.5975C15.1441 28.6949 15.2763 28.7496 15.4141 28.7496C15.5519 28.7496 15.6841 28.6949 15.7815 28.5975C15.8789 28.5 15.9337 28.3679 15.9337 28.2301V26.1518C15.9337 26.014 15.8789 25.8818 15.7815 25.7844C15.6841 25.6869 15.5519 25.6322 15.4141 25.6322Z" fill="#0859F5"/>
<path d="M28.2297 14.8944H26.1514C26.0136 14.8944 25.8815 14.9491 25.784 15.0466C25.6866 15.144 25.6318 15.2762 25.6318 15.414C25.6318 15.5518 25.6866 15.6839 25.784 15.7814C25.8815 15.8788 26.0136 15.9336 26.1514 15.9336H28.2297C28.3675 15.9336 28.4996 15.8788 28.5971 15.7814C28.6945 15.6839 28.7493 15.5518 28.7493 15.414C28.7493 15.2762 28.6945 15.144 28.5971 15.0466C28.4996 14.9491 28.3675 14.8944 28.2297 14.8944Z" fill="#0859F5"/>
<path d="M4.67598 14.8944H2.5977C2.4599 14.8944 2.32774 14.9491 2.2303 15.0466C2.13287 15.144 2.07813 15.2762 2.07812 15.414C2.07813 15.5518 2.13287 15.6839 2.2303 15.7814C2.32774 15.8788 2.4599 15.9336 2.5977 15.9336H4.67598C4.81378 15.9336 4.94594 15.8788 5.04338 15.7814C5.14081 15.6839 5.19555 15.5518 5.19555 15.414C5.19555 15.2762 5.14081 15.144 5.04338 15.0466C4.94594 14.9491 4.81378 14.8944 4.67598 14.8944Z" fill="#0859F5"/>
<path d="M15.4141 7.27405C15.2763 7.27405 15.1441 7.32879 15.0467 7.42623C14.9493 7.52367 14.8945 7.65582 14.8945 7.79362V15.7604C14.8945 15.8982 14.9493 16.0303 15.0467 16.1278C15.1441 16.2252 15.2763 16.28 15.4141 16.28C15.5519 16.28 15.6841 16.2252 15.7815 16.1278C15.8789 16.0303 15.9337 15.8982 15.9337 15.7604V7.79362C15.9337 7.65582 15.8789 7.52367 15.7815 7.42623C15.6841 7.32879 15.5519 7.27405 15.4141 7.27405Z" fill="#0859F5"/>
</svg>
