<?xml version="1.0" encoding="utf-8"?>
<!-- Generator: Adobe Illustrator 22.1.0, SVG Export Plug-In . SVG Version: 6.00 Build 0)  -->
<svg version="1.1" id="Слой_1" xmlns="http://www.w3.org/2000/svg" xmlns:xlink="http://www.w3.org/1999/xlink" x="0px" y="0px"
	 viewBox="0 0 29 36" style="enable-background:new 0 0 29 36;" xml:space="preserve">
<style type="text/css">
	.st0{fill:#FFFFFF;stroke:none;stroke-miterlimit:10;}
</style>
<g>
	<path class="st0" d="M14.5,0.2C6.6,0.2,0.2,6.6,0.2,14.5c0,0.9,0.1,1.8,0.3,2.7c0,0.1,0,0.2,0.1,0.5c0.2,1,0.5,1.9,1,2.8
		c1.5,3.6,4.9,9.2,12.4,15.2c0.2,0.1,0.4,0.2,0.6,0.2s0.4-0.1,0.6-0.2c7.4-6,10.8-11.5,12.4-15.2c0.4-0.9,0.7-1.8,1-2.8
		c0.1-0.3,0.1-0.4,0.1-0.5c0.2-0.9,0.3-1.8,0.3-2.7C28.8,6.6,22.4,0.2,14.5,0.2z M14.2,19.3C11.3,19.3,9,17,9,14.2
		C9,11.3,11.3,9,14.2,9c2.8,0,5.1,2.3,5.1,5.1C19.3,17,17,19.3,14.2,19.3z"/>
</g>
</svg>
